<svg xmlns="http://www.w3.org/2000/svg" data-name="logo art" width="345" height="322.7415731420663" style=""><rect id="backgroundrect" width="100%" height="100%" x="0" y="0" fill="none" stroke="none"/>
    <defs>
        <style>.cls-1{fill:#fff;}</style>
    </defs>
    <title>gitlab-icon-1-color-white-rgb</title>
    
<g class="currentLayer" style=""><title>Layer 1</title><path class="cls-1" d="M340.6934773731232,180.32808237255378 L322.91347737312316,125.01266493023198 a7.72,7.816859283447266 0 0 0 -0.4300000000000002,-1.4884434127807618 L286.8134773731232,12.346611501582071 a14.18,14.357909927368164 0 0 0 -13.54,-9.791325035095214 a13.94,14.11489875793457 0 0 0 -13.38,9.872328758239746 l-34,105.9427444076538 H118.58347737312317 L84.53347737312316,12.427615224726615 A13.94,14.11489875793457 0 0 0 71.21347737312317,2.5552864664868697 h-0.08000000000000006 a14.22,14.39841178894043 0 0 0 -13.5,9.882454223632813 L21.933477373123168,123.74698175609868 c0,0.10125465393066407 -0.08000000000000006,0.1822583770751954 -0.11000000000000006,0.2835130310058594 l-18.1,56.30771305084228 a20.29,20.544569282531736 0 0 0 7.37,22.99493190765381 L167.47347737312316,318.3888030070142 a8,8.100372314453125 0 0 0 9.45,-0.05062732696533207 l0,0 L333.3334773731232,203.33313974560062 A20.28,20.534443817138673 0 0 0 340.6934773731232,180.32808237255378 zM106.94347737312316,134.63185705364506 l43.59,135.8432437133789 L45.893477373123176,134.63185705364506 zm87,135.8736201095581 l41.8,-130.23373588562012 l1.8,-5.6398842239379885 h61.1 L203.97347737312316,257.43350134075445 zm79.47,-247.64863258361817 l30.63,95.51351505279541 H242.73347737312315 zM220.70347737312318,134.57110426128668 l-30.37,94.63259956359863 L172.21347737312317,285.5620442026929 L123.79347737312318,134.57110426128668 zM71.06347737312316,22.856844579585026 l30.69,95.51351505279541 H40.483477373123186 zm-50.56,167.37394294738772 a4.3100000000000005,4.364075584411622 0 0 1 -1.56,-4.890599784851075 L32.383477373123156,143.52201566875738 l98.57,127.95550617218018 zm303.43,0 L213.47347737312316,271.44714544475835 l0.3700000000000002,-0.4860223388671877 L312.04347737312315,143.52201566875738 l13.44,41.797921142578126 A4.3100000000000005,4.364075584411622 0 0 1 323.9334773731232,190.22066206157965 z" id="svg_1"/></g></svg>