<svg xmlns="http://www.w3.org/2000/svg" data-name="Layer 1" width="206" height="202.24719104735544" style=""><rect id="backgroundrect" width="100%" height="100%" x="0" y="0" fill="none" stroke="none" class="selected" style=""/><defs><style>.cls-1{fill:#fff;}</style></defs><title>kubernetes-icon-white</title><g class="currentLayer" style=""><title>Layer 1</title><path class="cls-1" d="M123.4877752380371,115.22955500007629 a3.58975,3.58975 0 0 0 -0.8550000000000003,-0.06500000000000004 a3.685,3.685 0 0 0 -1.425,0.37000000000000016 a3.725,3.725 0 0 0 -1.803,4.825 l-0.02600000000000002,0.03700000000000001 l8.528,20.603 a43.53016,43.53016 0 0 0 17.595,-22.102 l-21.976,-3.714 zm-34.194,2.92 a3.72,3.72 0 0 0 -3.568,-2.894 a3.6548000000000007,3.6548000000000007 0 0 0 -0.7330000000000003,0.06500000000000004 l-0.03700000000000001,-0.04500000000000003 l-21.785,3.6980000000000004 a43.695,43.695 0 0 0 17.54,21.946 l8.442,-20.399 l-0.06600000000000004,-0.08000000000000004 A3.68318,3.68318 0 0 0 89.29377523803711,118.1495550000763 zm18.245,8 a3.718,3.718 0 0 0 -6.557,0.008000000000000005 h-0.01800000000000001 l-10.713000000000001,19.372 a43.637,43.637 0 0 0 23.815,1.225 q2.197,-0.5 4.292,-1.199 l-10.738,-19.407 zm33.914,-45 l-16.483,14.753 l0.009000000000000008,0.04700000000000002 a3.725,3.725 0 0 0 1.46,6.3950000000000005 l0.02000000000000001,0.08900000000000007 l21.35,6.15 a44.278,44.278 0 0 0 -6.356,-27.432 zm-30.623,1.653 a3.725,3.725 0 0 0 5.913,2.84 l0.06500000000000004,0.02800000000000001 l18.036,-12.789 a43.85,43.85 0 0 0 -25.287,-12.19 l1.2530000000000001,22.105 zm-19.1,2.922 a3.72,3.72 0 0 0 5.904,-2.85 l0.09200000000000008,-0.04400000000000003 l1.2530000000000001,-22.139 a44.68089,44.68089 0 0 0 -4.501,0.775 a43.46694,43.46694 0 0 0 -20.937,11.409 l18.154,12.869 zm-9.678,16.728 a3.72,3.72 0 0 0 1.462,-6.396 l0.01800000000000001,-0.08700000000000006 l-16.574,-14.825 a43.454,43.454 0 0 0 -6.168,27.511 l21.245,-6.13 zm16.098,6.5120000000000005 l6.114,2.94 l6.096,-2.933 l1.514,-6.582 l-4.219,-5.276 h-6.79 l-4.231,5.268 z" id="svg_1"/><path class="cls-1" d="M203.65238190460207,121.93054500007631 l-17.422,-75.675 a13.60206,13.60206 0 0 0 -7.293,-9.073 l-70.521,-33.67 a13.58906,13.58906 0 0 0 -11.705,0 l-70.507,33.688 a13.598,13.598 0 0 0 -7.295,9.072 l-17.394,75.673 a13.315,13.315 0 0 0 -0.0040000000000000036,5.8100000000000005 a13.50537,13.50537 0 0 0 0.4910000000000002,1.718 a13.099310000000001,13.099310000000001 0 0 0 1.343,2.726 c0.2390000000000001,0.3650000000000002 0.4910000000000002,0.7200000000000004 0.7650000000000005,1.064 l48.804,60.678 c0.2130000000000001,0.264 0.4480000000000003,0.505 0.6810000000000007,0.7500000000000004 a13.42327,13.42327 0 0 0 2.574,2.133 a13.9238,13.9238 0 0 0 3.857,1.677 a13.29693,13.29693 0 0 0 3.43,0.4730000000000002 h0.7590000000000005 l77.504,-0.018000000000000013 a12.99563,12.99563 0 0 0 1.4100000000000001,-0.08300000000000007 a13.47028,13.47028 0 0 0 1.9889999999999999,-0.3780000000000002 a13.8696,13.8696 0 0 0 1.381,-0.4420000000000002 c0.3530000000000002,-0.135 0.7050000000000004,-0.27 1.045,-0.4330000000000002 a13.94049,13.94049 0 0 0 1.479,-0.8220000000000004 a13.30347,13.30347 0 0 0 3.237,-2.865 l1.488,-1.85 l47.299,-58.84 a13.18512,13.18512 0 0 0 2.108,-3.785 a13.673210000000001,13.673210000000001 0 0 0 0.5,-1.7240000000000002 a13.28225,13.28225 0 0 0 -0.0040000000000000036,-5.809 zm-73.147,29.432 a14.51575,14.51575 0 0 0 0.7030000000000004,1.703 a3.31407,3.31407 0 0 0 -0.3270000000000003,2.49 a39.373,39.373 0 0 0 3.742,6.7 a35.059,35.059 0 0 1 2.263,3.364 c0.17,0.3150000000000002 0.3920000000000003,0.803 0.553,1.1360000000000001 a4.24,4.24 0 1 1 -7.63,3.607 c-0.16100000000000014,-0.3300000000000003 -0.3850000000000003,-0.77 -0.522,-1.082 a35.27523,35.27523 0 0 1 -1.225,-3.8680000000000003 a39.3046,39.3046 0 0 0 -2.896,-7.097 a3.335,3.335 0 0 0 -2.154,-1.307 c-0.135,-0.233 -0.6350000000000005,-1.149 -0.903,-1.6230000000000002 a54.617,54.617 0 0 1 -38.948,-0.1 l-0.9550000000000004,1.731 a3.4290000000000003,3.4290000000000003 0 0 0 -1.819,0.8860000000000005 a29.517220000000002,29.517220000000002 0 0 0 -3.268,7.582 a34.90015,34.90015 0 0 1 -1.218,3.8680000000000003 c-0.135,0.3100000000000002 -0.3610000000000002,0.7440000000000004 -0.522,1.073 v0.009000000000000011 l-0.007000000000000008,0.008000000000000007 a4.238,4.238 0 1 1 -7.619,-3.616 c0.1590000000000001,-0.33500000000000035 0.3720000000000002,-0.8200000000000004 0.54,-1.135 a35.17534,35.17534 0 0 1 2.262,-3.373 a41.22776,41.22776 0 0 0 3.8200000000000003,-6.866 a4.188,4.188 0 0 0 -0.3760000000000002,-2.387 l0.7680000000000005,-1.84 a54.92193,54.92193 0 0 1 -24.338,-30.387 l-1.839,0.3130000000000002 a4.6801200000000005,4.6801200000000005 0 0 0 -2.428,-0.8550000000000004 a39.52335,39.52335 0 0 0 -7.356,2.165 a35.589620000000004,35.589620000000004 0 0 1 -3.787,1.45 c-0.3050000000000002,0.08400000000000007 -0.7450000000000004,0.16800000000000018 -1.093,0.2440000000000001 c-0.028000000000000014,0.010000000000000007 -0.05200000000000004,0.022000000000000026 -0.08000000000000006,0.02900000000000002 a0.60221,0.60221 0 0 1 -0.06500000000000006,0.006000000000000008 a4.236,4.236 0 1 1 -1.874,-8.224 l0.06100000000000004,-0.015000000000000012 l0.03700000000000001,-0.010000000000000007 c0.3530000000000002,-0.08300000000000007 0.805,-0.2 1.127,-0.262 a35.26958,35.26958 0 0 1 4.05,-0.3260000000000003 a39.38736,39.38736 0 0 0 7.564,-1.242 a5.835,5.835 0 0 0 1.814,-1.83 l1.7670000000000003,-0.516 a54.613,54.613 0 0 1 8.613,-38.073 l-1.353,-1.206 a4.68792,4.68792 0 0 0 -0.8480000000000004,-2.436 a39.36494,39.36494 0 0 0 -6.277,-4.41 a35.25454,35.25454 0 0 1 -3.499,-2.046 c-0.256,-0.19100000000000014 -0.5960000000000004,-0.4780000000000002 -0.8740000000000004,-0.7040000000000004 l-0.06300000000000006,-0.04400000000000004 a4.473,4.473 0 0 1 -1.038,-6.222 a4.066,4.066 0 0 1 3.363,-1.488 a5.03,5.03 0 0 1 2.942,1.11 c0.2870000000000002,0.22500000000000014 0.6800000000000007,0.526 0.935,0.7450000000000004 a35.253,35.253 0 0 1 2.7800000000000002,2.95 a39.38359,39.38359 0 0 0 5.69,5.142 a3.333,3.333 0 0 0 2.507,0.2430000000000001 q0.7540000000000004,0.55 1.522,1.082 a54.289,54.289 0 0 1 27.577,-15.754 a55.0513,55.0513 0 0 1 7.63,-1.173 l0.1,-1.784 a4.6000700000000005,4.6000700000000005 0 0 0 1.37,-2.184 a39.47478,39.47478 0 0 0 -0.4700000000000002,-7.654 a35.46819,35.46819 0 0 1 -0.5760000000000004,-4.014 c-0.011000000000000012,-0.3070000000000002 0.006000000000000008,-0.7310000000000004 0.010000000000000007,-1.081 c0,-0.04000000000000003 -0.010000000000000007,-0.07900000000000006 -0.010000000000000007,-0.11800000000000008 a4.242,4.242 0 1 1 8.441,-0.0040000000000000036 c0,0.3700000000000002 0.022000000000000026,0.8610000000000004 0.009000000000000011,1.2 a35.109,35.109 0 0 1 -0.5790000000000004,4.013 a39.53426,39.53426 0 0 0 -0.4780000000000002,7.6560000000000015 a3.3440000000000003,3.3440000000000003 0 0 0 1.379,2.11 c0.015000000000000012,0.3050000000000002 0.06500000000000006,1.323 0.10200000000000002,1.8840000000000003 a55.309,55.309 0 0 1 35.032,16.927 l1.606,-1.147 a4.69015,4.69015 0 0 0 2.56,-0.278 a39.53107,39.53107 0 0 0 5.69,-5.148 a35.0022,35.0022 0 0 1 2.787,-2.95 c0.259,-0.22200000000000014 0.6500000000000006,-0.52 0.936,-0.7460000000000004 a4.242,4.242 0 1 1 5.258,6.598 c-0.2830000000000002,0.22900000000000015 -0.6570000000000007,0.548 -0.929,0.7500000000000004 a35.09514,35.09514 0 0 1 -3.507,2.046 a39.49535,39.49535 0 0 0 -6.277,4.41 a3.337,3.337 0 0 0 -0.792,2.39 c-0.23500000000000001,0.2160000000000001 -1.06,0.9470000000000004 -1.497,1.343 a54.837,54.837 0 0 1 8.792,37.983 l1.7040000000000002,0.4960000000000002 a4.7449,4.7449 0 0 0 1.82,1.831 a39.46539,39.46539 0 0 0 7.568,1.245 a35.6404,35.6404 0 0 1 4.046,0.3240000000000003 c0.3550000000000002,0.06500000000000006 0.8680000000000004,0.2070000000000001 1.23,0.2900000000000002 a4.236,4.236 0 1 1 -1.8780000000000001,8.223 l-0.06100000000000004,-0.008000000000000007 c-0.028000000000000014,-0.007000000000000008 -0.05400000000000005,-0.022000000000000026 -0.08300000000000007,-0.02900000000000002 c-0.34800000000000036,-0.07600000000000005 -0.785,-0.1520000000000001 -1.09,-0.232 a35.14,35.14 0 0 1 -3.785,-1.462 a39.476,39.476 0 0 0 -7.363,-2.165 a3.337,3.337 0 0 0 -2.362,0.8770000000000004 q-0.9,-0.171 -1.804,-0.3160000000000002 a54.92,54.92 0 0 1 -24.328,30.605 z" id="svg_2"/><path class="cls-1" d="M203.65238190460207,121.93054500007631 l-17.422,-75.675 a13.60206,13.60206 0 0 0 -7.293,-9.073 l-70.521,-33.67 a13.58906,13.58906 0 0 0 -11.705,0 l-70.507,33.688 a13.598,13.598 0 0 0 -7.295,9.072 l-17.394,75.673 a13.315,13.315 0 0 0 -0.004000000000000004,5.8100000000000005 a13.50537,13.50537 0 0 0 0.49100000000000027,1.718 a13.099310000000001,13.099310000000001 0 0 0 1.343,2.726 c0.23900000000000013,0.36500000000000027 0.49100000000000027,0.7200000000000005 0.7650000000000007,1.064 l48.804,60.678 c0.21300000000000013,0.264 0.44800000000000034,0.505 0.6810000000000008,0.7500000000000006 a13.42327,13.42327 0 0 0 2.574,2.133 a13.9238,13.9238 0 0 0 3.857,1.677 a13.29693,13.29693 0 0 0 3.43,0.47300000000000025 h0.7590000000000007 l77.504,-0.018000000000000016 a12.99563,12.99563 0 0 0 1.4100000000000001,-0.08300000000000009 a13.47028,13.47028 0 0 0 1.9889999999999999,-0.3780000000000003 a13.8696,13.8696 0 0 0 1.381,-0.4420000000000003 c0.35300000000000026,-0.135 0.7050000000000005,-0.27 1.045,-0.4330000000000003 a13.94049,13.94049 0 0 0 1.479,-0.8220000000000005 a13.30347,13.30347 0 0 0 3.237,-2.865 l1.488,-1.85 l47.299,-58.84 a13.18512,13.18512 0 0 0 2.108,-3.785 a13.673210000000001,13.673210000000001 0 0 0 0.5,-1.7240000000000002 a13.28225,13.28225 0 0 0 -0.004000000000000004,-5.809 zm-73.147,29.432 a14.51575,14.51575 0 0 0 0.7030000000000005,1.703 a3.31407,3.31407 0 0 0 -0.32700000000000035,2.49 a39.373,39.373 0 0 0 3.742,6.7 a35.059,35.059 0 0 1 2.263,3.364 c0.17,0.3150000000000003 0.39200000000000035,0.803 0.553,1.1360000000000001 a4.24,4.24 0 1 1 -7.63,3.607 c-0.16100000000000017,-0.33000000000000035 -0.38500000000000034,-0.77 -0.522,-1.082 a35.27523,35.27523 0 0 1 -1.225,-3.8680000000000003 a39.3046,39.3046 0 0 0 -2.896,-7.097 a3.335,3.335 0 0 0 -2.154,-1.307 c-0.135,-0.233 -0.6350000000000007,-1.149 -0.903,-1.6230000000000002 a54.617,54.617 0 0 1 -38.948,-0.1 l-0.9550000000000005,1.731 a3.4290000000000003,3.4290000000000003 0 0 0 -1.819,0.8860000000000007 a29.517220000000002,29.517220000000002 0 0 0 -3.268,7.582 a34.90015,34.90015 0 0 1 -1.218,3.8680000000000003 c-0.135,0.3100000000000003 -0.36100000000000027,0.7440000000000005 -0.522,1.073 v0.009000000000000015 l-0.00700000000000001,0.008000000000000009 a4.238,4.238 0 1 1 -7.619,-3.616 c0.15900000000000014,-0.3350000000000004 0.3720000000000003,-0.8200000000000005 0.54,-1.135 a35.17534,35.17534 0 0 1 2.262,-3.373 a41.22776,41.22776 0 0 0 3.8200000000000003,-6.866 a4.188,4.188 0 0 0 -0.3760000000000003,-2.387 l0.7680000000000007,-1.84 a54.92193,54.92193 0 0 1 -24.338,-30.387 l-1.839,0.3130000000000003 a4.6801200000000005,4.6801200000000005 0 0 0 -2.428,-0.8550000000000005 a39.52335,39.52335 0 0 0 -7.356,2.165 a35.589620000000004,35.589620000000004 0 0 1 -3.787,1.45 c-0.30500000000000027,0.08400000000000009 -0.7450000000000006,0.16800000000000023 -1.093,0.24400000000000013 c-0.028000000000000018,0.010000000000000009 -0.05200000000000005,0.022000000000000033 -0.08000000000000007,0.029000000000000026 a0.60221,0.60221 0 0 1 -0.06500000000000007,0.00600000000000001 a4.236,4.236 0 1 1 -1.874,-8.224 l0.061000000000000054,-0.015000000000000015 l0.03700000000000001,-0.010000000000000009 c0.35300000000000026,-0.08300000000000009 0.805,-0.2 1.127,-0.262 a35.26958,35.26958 0 0 1 4.05,-0.32600000000000035 a39.38736,39.38736 0 0 0 7.564,-1.242 a5.835,5.835 0 0 0 1.814,-1.83 l1.7670000000000003,-0.516 a54.613,54.613 0 0 1 8.613,-38.073 l-1.353,-1.206 a4.68792,4.68792 0 0 0 -0.8480000000000005,-2.436 a39.36494,39.36494 0 0 0 -6.277,-4.41 a35.25454,35.25454 0 0 1 -3.499,-2.046 c-0.256,-0.19100000000000017 -0.5960000000000005,-0.47800000000000026 -0.8740000000000006,-0.7040000000000005 l-0.06300000000000007,-0.04400000000000005 a4.473,4.473 0 0 1 -1.038,-6.222 a4.066,4.066 0 0 1 3.363,-1.488 a5.03,5.03 0 0 1 2.942,1.11 c0.28700000000000025,0.22500000000000017 0.6800000000000008,0.526 0.935,0.7450000000000006 a35.253,35.253 0 0 1 2.7800000000000002,2.95 a39.38359,39.38359 0 0 0 5.69,5.142 a3.333,3.333 0 0 0 2.507,0.24300000000000013 q0.7540000000000006,0.55 1.522,1.082 a54.289,54.289 0 0 1 27.577,-15.754 a55.0513,55.0513 0 0 1 7.63,-1.173 l0.1,-1.784 a4.6000700000000005,4.6000700000000005 0 0 0 1.37,-2.184 a39.47478,39.47478 0 0 0 -0.47000000000000025,-7.654 a35.46819,35.46819 0 0 1 -0.5760000000000005,-4.014 c-0.011000000000000015,-0.3070000000000003 0.00600000000000001,-0.7310000000000005 0.010000000000000009,-1.081 c0,-0.040000000000000036 -0.010000000000000009,-0.07900000000000007 -0.010000000000000009,-0.1180000000000001 a4.242,4.242 0 1 1 8.441,-0.004000000000000004 c0,0.3700000000000003 0.022000000000000033,0.8610000000000005 0.009000000000000015,1.2 a35.109,35.109 0 0 1 -0.5790000000000005,4.013 a39.53426,39.53426 0 0 0 -0.47800000000000026,7.6560000000000015 a3.3440000000000003,3.3440000000000003 0 0 0 1.379,2.11 c0.015000000000000015,0.30500000000000027 0.06500000000000007,1.323 0.10200000000000002,1.8840000000000003 a55.309,55.309 0 0 1 35.032,16.927 l1.606,-1.147 a4.69015,4.69015 0 0 0 2.56,-0.278 a39.53107,39.53107 0 0 0 5.69,-5.148 a35.0022,35.0022 0 0 1 2.787,-2.95 c0.259,-0.22200000000000017 0.6500000000000007,-0.52 0.936,-0.7460000000000006 a4.242,4.242 0 1 1 5.258,6.598 c-0.28300000000000025,0.2290000000000002 -0.6570000000000008,0.548 -0.929,0.7500000000000006 a35.09514,35.09514 0 0 1 -3.507,2.046 a39.49535,39.49535 0 0 0 -6.277,4.41 a3.337,3.337 0 0 0 -0.792,2.39 c-0.23500000000000001,0.21600000000000014 -1.06,0.9470000000000005 -1.497,1.343 a54.837,54.837 0 0 1 8.792,37.983 l1.7040000000000002,0.4960000000000003 a4.7449,4.7449 0 0 0 1.82,1.831 a39.46539,39.46539 0 0 0 7.568,1.245 a35.6404,35.6404 0 0 1 4.046,0.32400000000000034 c0.35500000000000026,0.06500000000000007 0.8680000000000005,0.20700000000000013 1.23,0.29000000000000026 a4.236,4.236 0 1 1 -1.8780000000000001,8.223 l-0.061000000000000054,-0.008000000000000009 c-0.028000000000000018,-0.00700000000000001 -0.05400000000000006,-0.022000000000000033 -0.08300000000000009,-0.029000000000000026 c-0.3480000000000004,-0.07600000000000007 -0.785,-0.15200000000000014 -1.09,-0.232 a35.14,35.14 0 0 1 -3.785,-1.462 a39.476,39.476 0 0 0 -7.363,-2.165 a3.337,3.337 0 0 0 -2.362,0.8770000000000006 q-0.9,-0.171 -1.804,-0.3160000000000003 a54.92,54.92 0 0 1 -24.328,30.605 z" id="svg_3"/></g></svg>